<svg height="846" width="720" xmlns="http://www.w3.org/2000/svg">
<rect height="846" fill="#555" width="720"></rect>
<text fill="#7f7" font-family="Courier New" font-size="12" xml:space="preserve">
<tspan x="10" y="26">6 megabytes installed</tspan>
<tspan x="10" y="42"></tspan>
<tspan x="10" y="58">node_modules</tspan>
<tspan x="10" y="74">└─┬ app-notify@2.0.2 </tspan>
<tspan x="10" y="90">  ├── async@0.9.2 </tspan>
<tspan x="10" y="106">  ├── lodash@2.4.2 </tspan>
<tspan x="10" y="122">  ├─┬ nodemailer@1.11.0 </tspan>
<tspan x="10" y="138">  │ ├─┬ libmime@1.2.0 </tspan>
<tspan x="10" y="154">  │ │ ├── iconv-lite@0.4.15 </tspan>
<tspan x="10" y="170">  │ │ ├── libbase64@0.1.0 </tspan>
<tspan x="10" y="186">  │ │ └── libqp@1.1.0 </tspan>
<tspan x="10" y="202">  │ ├─┬ mailcomposer@2.1.0 </tspan>
<tspan x="10" y="218">  │ │ └─┬ buildmail@2.0.0 </tspan>
<tspan x="10" y="234">  │ │   ├── addressparser@0.3.2 </tspan>
<tspan x="10" y="250">  │ │   └── needle@0.10.0 </tspan>
<tspan x="10" y="266">  │ ├─┬ needle@0.11.0 </tspan>
<tspan x="10" y="282">  │ │ └─┬ debug@2.6.4 </tspan>
<tspan x="10" y="298">  │ │   └── ms@0.7.3 </tspan>
<tspan x="10" y="314">  │ ├─┬ nodemailer-direct-transport@1.1.0 </tspan>
<tspan x="10" y="330">  │ │ └── smtp-connection@1.3.8 </tspan>
<tspan x="10" y="346">  │ └─┬ nodemailer-smtp-transport@1.1.0 </tspan>
<tspan x="10" y="362">  │   ├── clone@1.0.2 </tspan>
<tspan x="10" y="378">  │   └── nodemailer-wellknown@0.1.10 </tspan>
<tspan x="10" y="394">  ├── q@1.5.0 </tspan>
<tspan x="10" y="410">  └─┬ twilio@1.11.1 </tspan>
<tspan x="10" y="426">    ├── jwt-simple@0.1.0 </tspan>
<tspan x="10" y="442">    ├── q@0.9.7 </tspan>
<tspan x="10" y="458">    ├─┬ request@2.27.0 </tspan>
<tspan x="10" y="474">    │ ├── aws-sign@0.3.0 </tspan>
<tspan x="10" y="490">    │ ├── cookie-jar@0.3.0 </tspan>
<tspan x="10" y="506">    │ ├── forever-agent@0.5.2 </tspan>
<tspan x="10" y="522">    │ ├─┬ form-data@0.1.4 </tspan>
<tspan x="10" y="538">    │ │ └─┬ combined-stream@0.0.7 </tspan>
<tspan x="10" y="554">    │ │   └── delayed-stream@0.0.5 </tspan>
<tspan x="10" y="570">    │ ├─┬ hawk@1.0.0 </tspan>
<tspan x="10" y="586">    │ │ ├── boom@0.4.2 </tspan>
<tspan x="10" y="602">    │ │ ├── cryptiles@0.2.2 </tspan>
<tspan x="10" y="618">    │ │ ├── hoek@0.9.1 </tspan>
<tspan x="10" y="634">    │ │ └── sntp@0.2.4 </tspan>
<tspan x="10" y="650">    │ ├─┬ http-signature@0.10.1 </tspan>
<tspan x="10" y="666">    │ │ ├── asn1@0.1.11 </tspan>
<tspan x="10" y="682">    │ │ ├── assert-plus@0.1.5 </tspan>
<tspan x="10" y="698">    │ │ └── ctype@0.5.3 </tspan>
<tspan x="10" y="714">    │ ├── json-stringify-safe@5.0.1 </tspan>
<tspan x="10" y="730">    │ ├── mime@1.2.11 </tspan>
<tspan x="10" y="746">    │ ├── node-uuid@1.4.8 </tspan>
<tspan x="10" y="762">    │ ├── oauth-sign@0.3.0 </tspan>
<tspan x="10" y="778">    │ ├── qs@0.6.6 </tspan>
<tspan x="10" y="794">    │ └── tunnel-agent@0.3.0 </tspan>
<tspan x="10" y="810">    ├── scmp@0.0.3 </tspan>
<tspan x="10" y="826">    └── underscore@1.8.3</tspan>
</text>
</svg>
